# xmcd CD database file
#
# Track frame offsets:
#	210
#	22220
#	47584
#	87628
#	106860
#	140781
#	165718
#	184189
#	227260
#	249226
#	272009
#
# Disc length: 3915 seconds
#
# Revision: 0
# Processed by: cddbd v1.5.1PL0 Copyright (c) Steve Scherf et al.
# Submitted via: CDex 1.50
#
DISCID=910f490b
DTITLE=Vance Kelly - Live at Lee´s unleaded Blues
DYEAR=1999
DGENRE=Blues
TTITLE0=Members Only
TTITLE1=Wall To Wall
TTITLE2=Tell Me Why
TTITLE3=You Steppin Out
TTITLE4=Rock Me/Hey Mister
TTITLE5=Straighten It Out
TTITLE6=Pride and Joy
TTITLE7=Doing Your Own Thing
TTITLE8=Just Because
TTITLE9=She´s Fine
TTITLE10=The Thrill Is Gone
EXTD=YEAR: 1999
EXTT0=
EXTT1=
EXTT2=
EXTT3=
EXTT4=
EXTT5=
EXTT6=
EXTT7=
EXTT8=
EXTT9=
EXTT10=
PLAYORDER=
